<svg height="512pt" viewBox="-40 0 511 512" width="512pt" xmlns="http://www.w3.org/2000/svg"><path d="m296.664062 160.667969h126.714844l-151.882812-151.882813v126.714844c0 13.878906 11.292968 25.167969 25.167968 25.167969zm0 0"/><path d="m296.664062 190.667969c-30.417968 0-55.167968-24.75-55.167968-55.167969v-135.5h-185.828125c-30.421875 0-55.167969 24.746094-55.167969 55.167969v401.664062c0 30.421875 24.746094 55.167969 55.167969 55.167969h321.332031c30.417969 0 55.167969-24.746094 55.167969-55.167969v-266.164062zm-160.664062-98.320313c30.417969 0 55.167969 24.746094 55.167969 55.167969 0 30.417969-24.75 55.164063-55.167969 55.164063s-55.164062-24.746094-55.164062-55.164063c0-30.421875 24.746093-55.167969 55.164062-55.167969zm266.164062 364.484375c0 13.878907-11.289062 25.167969-25.167968 25.167969h-321.328125c-13.878907 0-25.167969-11.289062-25.167969-25.167969v-128.558593l70.796875-70.796876c2.8125-2.8125 6.625-4.394531 10.605469-4.394531 3.976562 0 7.792968 1.582031 10.605468 4.394531l69.726563 69.726563 93.824219-93.824219c2.8125-2.8125 6.628906-4.394531 10.605468-4.394531 3.980469 0 7.796876 1.582031 10.609376 4.394531l94.890624 94.894532zm0 0"/></svg>