<svg viewBox="0 0 24 24" preserveAspectRatio="xMidYMid meet" focusable="false" class="style-scope iron-icon" style="pointer-events: none; display: block; width: 100%; height: 100%;"><g transform="translate(12.000000, 12.000000) rotate(-180.000000) translate(-12.000000, -12.000000) translate(2.000000, 3.000000)" class="style-scope iron-icon">
  <path d="M13,0H4C3.2,0,2.5,0.5,2.2,1.2l-3,7.3C-0.9,8.7-1,8.9-1,9.2v2.1 c0,1.1,0.9,2.1,2,2.1h6.3l-1,4.7v0.3c0,0.4,0.2,0.8,0.4,1.1l0,0c0.6,0.6,1.5,0.5,2.1-0.1l5.6-5.7c0.4-0.4,0.6-0.9,0.6-1.4V2 C15,0.9,14.1,0,13,0L13,0z M12.7,12.6l-3.5,3.6c-0.2,0.2-0.5,0-0.4-0.2l1-4.7H2c-0.6,0-1-0.5-1-1V9.4l0-0.1l2.7-6.7 C3.9,2.3,4.3,2,4.7,2L12,2c0.6,0,1,0.5,1,1v8.8C13,12.2,12.9,12.4,12.7,12.6L12.7,12.6z" class="style-scope iron-icon"></path>
  <path d="M17,0h4v12h-4V0z" class="style-scope iron-icon"></path>
</g>
</svg>